# xmcd
#
# Track frame offsets:
# 183
# 16630
# 33183
# 53150
# 91470
# 110958
# 135083
# 164695
#
# Disc length: 2449 seconds
#
#
# Revision: 0
# Processed by: cddbd v1.5.2PL0 Copyright (c) Steve Scherf et al.
# Submitted via: FreeRIP 2.945 
#
DISCID=5d098f08
DTITLE=Ripoff Raskolnikov and The 20th Century Blues Band - Ripoff Raskolnikov and The 20th Century Blues Band
DYEAR=1988
DGENRE=Blues
TTITLE0=Red Dress On
TTITLE1=Rider On The Offside
TTITLE2=Driver Shooting Blues
TTITLE3=Raskolnikov
TTITLE4=Three Night Stand
TTITLE5=Alone In My Room
TTITLE6=The Bankrobber
TTITLE7=Strange Ways Of Love
EXTD=
EXTT0=
EXTT1=
EXTT2=
EXTT3=
EXTT4=
EXTT5=
EXTT6=
EXTT7=
PLAYORDER=
